<svg id="Ebene_1" data-name="Ebene 1" xmlns="http://www.w3.org/2000/svg" viewBox="0 0 270.15187 242.27375"><defs><style>.cls-1,.cls-2{fill:none;stroke:#000;stroke-miterlimit:10;}.cls-1{stroke-width:8px;}.cls-2{stroke-width:4px;}</style></defs><path d="M183.28809,42.49854h1.61425L189.875,55.98779h-1.7627l-4.01757-11.48535-4.0166,11.48535h-1.7627Zm-2.68164,8.85058h7.09765v1.52149h-7.09765Z" transform="translate(-21.35594 -29.56121)"/><path d="M179.61426,78.30078h1.61426V91.79h-1.61426Zm.92773,0h7.56055v1.52149H180.542Zm0,6.15088h6.541v1.52148h-6.541Z" transform="translate(-21.35594 -29.56121)"/><path d="M190.42285,78.2915h1.61426V91.79h-1.61426ZM191.249,84.563h4.60157a2.18628,2.18628,0,0,0,1.14062-.29248,1.94972,1.94972,0,0,0,.76074-.835,2.84836,2.84836,0,0,0,.27832-1.24756,2.76818,2.76818,0,0,0-.26953-1.24756,1.94762,1.94762,0,0,0-.75976-.835,2.20721,2.20721,0,0,0-1.15039-.29248H191.249V78.2915h4.52735a4.233,4.233,0,0,1,2.05468.48243,3.39042,3.39042,0,0,1,1.37305,1.36865,4.54446,4.54446,0,0,1,0,4.09082,3.37578,3.37578,0,0,1-1.37793,1.36865,4.23486,4.23486,0,0,1-2.0498.48242H191.249Zm3.99805,1.104,1.55859-.42676L200.25684,91.79h-1.91993Z" transform="translate(-21.35594 -29.56121)"/><path d="M206.01758,78.30078h1.61426L212.60449,91.79H210.8418l-4.01758-11.48535L202.80762,91.79h-1.7627Zm-2.68164,8.85059h7.09765v1.52148h-7.09765Z" transform="translate(-21.35594 -29.56121)"/><path d="M224.52637,78.30078h1.58593V91.79h-1.58593V80.94482l.11133.59375L220.94434,89.916h-1.13086l-3.69336-8.1919.11133-.7793V91.79h-1.58594V78.30078h1.58594l4.14746,9.32373Z" transform="translate(-21.35594 -29.56121)"/><path d="M229.45215,78.30078h1.61426V91.79h-1.61426Zm.918,0h7.74707v1.52149h-7.74707Zm0,6.03027h6.72656v1.52149h-6.72656Zm0,5.9375h7.74707V91.79h-7.74707Z" transform="translate(-21.35594 -29.56121)"/><path d="M246.624,78.30078h1.11328l2.85743,11.08643,2.61718-11.08643h1.73438L251.46777,91.79h-1.65234L247.2373,81.76123,244.5459,91.79h-1.65039L239.416,78.30078h1.73535l2.61523,11.08643Z" transform="translate(-21.35594 -29.56121)"/><path d="M258.64355,91.33105a3.99966,3.99966,0,0,1-1.64257-1.72119,5.79294,5.79294,0,0,1-.57032-2.65332V83.13428A5.79437,5.79437,0,0,1,257.001,80.481a4.00235,4.00235,0,0,1,1.64257-1.72119,5.6405,5.6405,0,0,1,5.05567,0A4.00237,4.00237,0,0,1,265.3418,80.481a5.7945,5.7945,0,0,1,.57031,2.65332v3.82226a5.79307,5.79307,0,0,1-.57031,2.65332,3.99969,3.99969,0,0,1-1.64258,1.72119,5.6405,5.6405,0,0,1-5.05567,0Zm4.1836-1.35449a2.67874,2.67874,0,0,0,1.07617-1.16015,3.9838,3.9838,0,0,0,.376-1.79493V83.06934a3.98525,3.98525,0,0,0-.376-1.79493,2.67874,2.67874,0,0,0-1.07617-1.16015,3.60038,3.60038,0,0,0-3.31152,0,2.673,2.673,0,0,0-1.07618,1.16015,3.98539,3.98539,0,0,0-.376,1.79493v3.95214a3.98393,3.98393,0,0,0,.376,1.79493,2.673,2.673,0,0,0,1.07618,1.16015,3.60038,3.60038,0,0,0,3.31152,0Z" transform="translate(-21.35594 -29.56121)"/><path d="M268.78809,78.2915h1.61425V91.79h-1.61425Zm.82617,6.27149h4.60156a2.18632,2.18632,0,0,0,1.14063-.29248,1.94985,1.94985,0,0,0,.76074-.835,2.84836,2.84836,0,0,0,.27832-1.24756,2.76831,2.76831,0,0,0-.26953-1.24756,1.94764,1.94764,0,0,0-.75977-.835,2.20716,2.20716,0,0,0-1.15039-.29248h-4.60156V78.2915h4.52734a4.233,4.233,0,0,1,2.05469.48243,3.39054,3.39054,0,0,1,1.37305,1.36865,4.54455,4.54455,0,0,1,0,4.09082,3.37584,3.37584,0,0,1-1.37793,1.36865,4.2349,4.2349,0,0,1-2.04981.48242h-4.52734Zm3.998,1.104,1.5586-.42676L278.62207,91.79h-1.91992Z" transform="translate(-21.35594 -29.56121)"/><path d="M281.17285,78.30078h1.61426V91.79h-1.61426Zm1.06641,8.47949,6.67969-8.47949h2.02343L282.37891,88.71Zm3.02539-2.18945,1.13086-1.38232,5.1123,8.58154h-1.958Z" transform="translate(-21.35594 -29.56121)"/><path d="M179.61426,114.41846h1.61426v13.48925h-1.61426Zm.92773,0h7.56055v1.52148H180.542Zm0,6.15088h6.541v1.52148h-6.541Z" transform="translate(-21.35594 -29.56121)"/><path d="M192.17188,127.44873a3.99968,3.99968,0,0,1-1.64258-1.72119,5.793,5.793,0,0,1-.57032-2.65332V119.252a5.79443,5.79443,0,0,1,.57032-2.65332,4.00242,4.00242,0,0,1,1.64258-1.72119,5.64057,5.64057,0,0,1,5.05566,0,4.00248,4.00248,0,0,1,1.64258,1.72119,5.79455,5.79455,0,0,1,.57031,2.65332v3.82227a5.7931,5.7931,0,0,1-.57031,2.65332,3.99974,3.99974,0,0,1-1.64258,1.72119,5.64048,5.64048,0,0,1-5.05566,0Zm4.18359-1.35449a2.67871,2.67871,0,0,0,1.07617-1.16016,3.98376,3.98376,0,0,0,.376-1.79492V119.187a3.98524,3.98524,0,0,0-.376-1.79492,2.67876,2.67876,0,0,0-1.07617-1.16016,3.60038,3.60038,0,0,0-3.31152,0,2.673,2.673,0,0,0-1.07618,1.16016,3.98537,3.98537,0,0,0-.376,1.79492v3.95215a3.98389,3.98389,0,0,0,.376,1.79492,2.673,2.673,0,0,0,1.07618,1.16016,3.60038,3.60038,0,0,0,3.31152,0Z" transform="translate(-21.35594 -29.56121)"/><path d="M202.31543,114.40918h1.61426v13.49853h-1.61426Zm.82617,6.27148h4.60156a2.18622,2.18622,0,0,0,1.14063-.29248,1.94973,1.94973,0,0,0,.76074-.835,2.84833,2.84833,0,0,0,.27832-1.24756,2.76814,2.76814,0,0,0-.26953-1.24755,1.94767,1.94767,0,0,0-.75977-.835,2.20716,2.20716,0,0,0-1.15039-.29248H203.1416v-1.52148H207.669a4.233,4.233,0,0,1,2.05468.48242,3.39054,3.39054,0,0,1,1.373,1.36865,4.54446,4.54446,0,0,1,0,4.09082,3.37587,3.37587,0,0,1-1.37793,1.36866,4.235,4.235,0,0,1-2.0498.48242H203.1416Zm3.998,1.104,1.55859-.42676,3.45117,6.5498h-1.91992Z" transform="translate(-21.35594 -29.56121)"/><path d="M187.917,150.60791h3.34961v13.48877h-2.31055V153.62305l.09375.59375-2.58007,8.37695h-2.24414l-2.58008-8.19141.09375-.77929v10.47363h-2.31055V150.60791h3.34961l2.56934,9.09131Z" transform="translate(-21.35594 -29.56121)"/><path d="M196.35547,163.6377a4.00126,4.00126,0,0,1-1.64258-1.72071,5.79307,5.79307,0,0,1-.57031-2.65332v-3.82226a5.79307,5.79307,0,0,1,.57031-2.65332,4.00356,4.00356,0,0,1,1.64258-1.72168,5.64462,5.64462,0,0,1,5.05566,0,4.0035,4.0035,0,0,1,1.64258,1.72168,5.79307,5.79307,0,0,1,.57031,2.65332v3.82226a5.79307,5.79307,0,0,1-.57031,2.65332,4.0012,4.0012,0,0,1-1.64258,1.72071,5.63644,5.63644,0,0,1-5.05566,0Zm4.18359-1.3545a2.67606,2.67606,0,0,0,1.07617-1.16015,3.98237,3.98237,0,0,0,.376-1.79492V155.376a3.98525,3.98525,0,0,0-.376-1.79493,2.68143,2.68143,0,0,0-1.07617-1.16015,3.60038,3.60038,0,0,0-3.31152,0,2.67573,2.67573,0,0,0-1.07617,1.16015,3.98525,3.98525,0,0,0-.376,1.79493v3.95215a3.98237,3.98237,0,0,0,.376,1.79492,2.67039,2.67039,0,0,0,1.07617,1.16015,3.60038,3.60038,0,0,0,3.31152,0Z" transform="translate(-21.35594 -29.56121)"/><path d="M206.5,150.60791h1.61426v13.48877H206.5Zm1.28027,11.96729H210.832a3.606,3.606,0,0,0,2.56543-.8252,3.15474,3.15474,0,0,0,.87695-2.41211v-3.9707a3.15474,3.15474,0,0,0-.87695-2.41211,3.60619,3.60619,0,0,0-2.56543-.82617h-3.05176v-1.521h2.99707a6.506,6.506,0,0,1,2.81543.54736,3.74169,3.74169,0,0,1,1.7295,1.62793,5.51746,5.51746,0,0,1,.585,2.65821v3.82226a5.48929,5.48929,0,0,1-.585,2.65332,3.76841,3.76841,0,0,1-1.73438,1.62793,6.48287,6.48287,0,0,1-2.82031.55176h-2.98731Z" transform="translate(-21.35594 -29.56121)"/><path d="M220.53711,164.09668h-1.61523V150.60791h1.61523Z" transform="translate(-21.35594 -29.56121)"/><path d="M224.01563,150.60791h1.61425v13.48877h-1.61425Zm.92773,0h7.56055v1.521h-7.56055Zm0,6.15088h6.541v1.52148h-6.541Z" transform="translate(-21.35594 -29.56121)"/><path d="M239.29492,158.61426v5.48242h-1.61426v-5.48242l-4.249-8.00635h1.78125l3.27441,6.41064,3.2754-6.41064H243.544Z" transform="translate(-21.35594 -29.56121)"/><path d="M246.78223,164.09668H245.167V150.60791h1.61524Z" transform="translate(-21.35594 -29.56121)"/><path d="M250.26074,150.60791H251.792l7.2168,11.29053-.38867-.06543v-11.2251h1.60449v13.48H258.6748l-7.28222-11.26269.47363.14843v11.11426h-1.60547Z" transform="translate(-21.35594 -29.56121)"/><path d="M272.78711,157.01855v2.1709a6.2099,6.2099,0,0,1-.55176,2.73145,3.83241,3.83241,0,0,1-1.61426,1.72558,5.1898,5.1898,0,0,1-2.55566.58985,5.54216,5.54216,0,0,1-2.584-.55664,3.7582,3.7582,0,0,1-1.63282-1.624,5.44338,5.44338,0,0,1-.56152-2.56933v-3.98047a6.17247,6.17247,0,0,1,.55176-2.72754,3.84051,3.84051,0,0,1,1.61426-1.7207,5.19776,5.19776,0,0,1,2.55566-.58887,4.977,4.977,0,0,1,2.19922.46826,4.08175,4.08175,0,0,1,1.59082,1.36865,5.66244,5.66244,0,0,1,.87695,2.1709h-1.74414a3.68462,3.68462,0,0,0-.62207-1.35449,2.759,2.759,0,0,0-1.002-.83105,2.93921,2.93921,0,0,0-1.29883-.28223,3.21286,3.21286,0,0,0-1.67383.41211,2.6393,2.6393,0,0,0-1.05273,1.19238,4.4574,4.4574,0,0,0-.36231,1.89258v3.98047a3.79062,3.79062,0,0,0,.36621,1.74414,2.497,2.497,0,0,0,1.07227,1.08984,3.59254,3.59254,0,0,0,1.707.376,3.28054,3.28054,0,0,0,1.66016-.38965,2.514,2.514,0,0,0,1.03418-1.165,4.58343,4.58343,0,0,0,.35742-1.9248V158.54h-3.00586v-1.52149Z" transform="translate(-21.35594 -29.56121)"/><path d="M183.3125,186.20605h1.61426l5.1582,13.48926h-2.7373l-3.22852-9.21289-3.22851,9.21289H178.1543Zm-2.68164,8.87793h7.09766v2.44922h-7.09766Z" transform="translate(-21.35594 -29.56121)"/><path d="M191.94043,186.20605h1.53125l7.2168,11.29-.38868-.06445V186.20605h1.6045v13.4795h-1.54981l-7.28222-11.2627.47363.14844v11.11426h-1.60547Z" transform="translate(-21.35594 -29.56121)"/><path d="M205.24414,186.20605h1.61426v13.48926h-1.61426Zm1.28027,11.96778h3.05176a3.60619,3.60619,0,0,0,2.56543-.82617,3.15332,3.15332,0,0,0,.87695-2.41211v-3.97071a3.15477,3.15477,0,0,0-.87695-2.41211,3.61042,3.61042,0,0,0-2.56543-.82519h-3.05176v-1.52149h2.99707a6.5133,6.5133,0,0,1,2.81543.54688,3.74359,3.74359,0,0,1,1.7295,1.62891,5.51334,5.51334,0,0,1,.585,2.65722v3.82227a5.48666,5.48666,0,0,1-.585,2.65332,3.77044,3.77044,0,0,1-1.73438,1.6289,6.49707,6.49707,0,0,1-2.82031.55176h-2.98731Z" transform="translate(-21.35594 -29.56121)"/><path d="M177.59766,222.207h9.88964v2.44922h-9.88964Zm3.67382,1.10352h2.542v12.38574h-2.542Z" transform="translate(-21.35594 -29.56121)"/><path d="M188.78613,222.207h1.61426v13.48926h-1.61426Zm.918,0h7.74707v1.52149H189.7041Zm0,6.03027h6.72656v1.52149H189.7041Zm0,5.9375h7.74707v1.52149H189.7041Z" transform="translate(-21.35594 -29.56121)"/><path d="M202.34961,235.64941a6.81982,6.81982,0,0,1-3.043-1.48437l.99316-1.25195a5.56368,5.56368,0,0,0,1.78125,1.05761,6.15561,6.15561,0,0,0,2.11524.35254,4.29752,4.29752,0,0,0,2.48144-.6123,1.99244,1.99244,0,0,0,.876-1.73535v-.00879a1.70422,1.70422,0,0,0-.38867-1.17871,2.38487,2.38487,0,0,0-1.00684-.65332,10.51876,10.51876,0,0,0-1.59082-.39454.39225.39225,0,0,0-.06054-.01367.34273.34273,0,0,1-.06055-.01465l-.2041-.03711a15.88688,15.88688,0,0,1-2.24512-.542,3.16715,3.16715,0,0,1-1.45215-1.03027,3.21053,3.21053,0,0,1-.59863-2.07324v-.00977a3.91117,3.91117,0,0,1,.56152-2.13769,3.52617,3.52617,0,0,1,1.6377-1.35059,6.53082,6.53082,0,0,1,2.58789-.46387,6.40116,6.40116,0,0,1,1.415.15821,7.06228,7.06228,0,0,1,1.38281.46875,8.28183,8.28183,0,0,1,1.34961.7832l-.92773,1.27148a7.01862,7.01862,0,0,0-1.624-.87695,4.61907,4.61907,0,0,0-1.5957-.292,3.88457,3.88457,0,0,0-2.35547.62109,2.0692,2.0692,0,0,0-.83594,1.7627v.00976a1.54258,1.54258,0,0,0,.42285,1.15039,2.60439,2.60439,0,0,0,1.05274.6211,15.24667,15.24667,0,0,0,1.74414.418l.07422.01855.07422.01856c.03711.00585.07226.01269.10644.01855s.07031.0127.10742.01855a12.23409,12.23409,0,0,1,2.07813.59864,3.045,3.045,0,0,1,1.94726,3.07519v.01856a3.71574,3.71574,0,0,1-.584,2.11035,3.63577,3.63577,0,0,1-1.69336,1.33594,6.97613,6.97613,0,0,1-2.67578.459A8.82921,8.82921,0,0,1,202.34961,235.64941Z" transform="translate(-21.35594 -29.56121)"/><path d="M209.98438,222.207h9.51855v1.52149h-9.51855Zm3.95214.8252h1.61426v12.66406h-1.61426Z" transform="translate(-21.35594 -29.56121)"/><path d="M223.11328,235.69629h-1.61523V222.207h1.61523Z" transform="translate(-21.35594 -29.56121)"/><path d="M226.5918,222.207h1.53125l7.21679,11.29-.38867-.06445V222.207h1.60449v13.47949h-1.5498l-7.28223-11.26269.47364.14844v11.11425H226.5918Z" transform="translate(-21.35594 -29.56121)"/><path d="M249.11621,228.61719v2.1709a6.21432,6.21432,0,0,1-.55176,2.73242,3.83244,3.83244,0,0,1-1.61425,1.72558,5.20045,5.20045,0,0,1-2.55567.58887,5.54216,5.54216,0,0,1-2.584-.55664,3.76111,3.76111,0,0,1-1.63282-1.62305,5.44749,5.44749,0,0,1-.56152-2.57031v-3.97949a6.17247,6.17247,0,0,1,.55176-2.72754,3.83555,3.83555,0,0,1,1.61426-1.7207,5.18718,5.18718,0,0,1,2.55566-.58985,4.97031,4.97031,0,0,1,2.19922.46875,4.08454,4.08454,0,0,1,1.59082,1.36817,5.67511,5.67511,0,0,1,.877,2.1709h-1.74414a3.68467,3.68467,0,0,0-.62207-1.3545,2.75622,2.75622,0,0,0-1.00195-.83007,2.93966,2.93966,0,0,0-1.29883-.28321,3.20382,3.20382,0,0,0-1.67383.41309,2.63936,2.63936,0,0,0-1.05273,1.19238,4.4574,4.4574,0,0,0-.36231,1.89258V231.085a3.78779,3.78779,0,0,0,.36621,1.74414,2.49933,2.49933,0,0,0,1.07227,1.09082,3.59259,3.59259,0,0,0,1.707.375,3.28052,3.28052,0,0,0,1.66016-.38965,2.51144,2.51144,0,0,0,1.03418-1.16406,4.58966,4.58966,0,0,0,.35742-1.9248v-.67774h-3.00586v-1.52148Z" transform="translate(-21.35594 -29.56121)"/><path d="M177.59766,258.20605h9.88964v2.44922h-9.88964Zm3.67382,1.1045h2.542v12.38476h-2.542Z" transform="translate(-21.35594 -29.56121)"/><path d="M190.7207,271.23633a4.00121,4.00121,0,0,1-1.64257-1.7207,5.793,5.793,0,0,1-.57032-2.65333V263.04a5.793,5.793,0,0,1,.57032-2.65332,4.00348,4.00348,0,0,1,1.64257-1.72168,5.64464,5.64464,0,0,1,5.05567,0,4.00356,4.00356,0,0,1,1.64258,1.72168,5.7931,5.7931,0,0,1,.57031,2.65332v3.82226a5.79314,5.79314,0,0,1-.57031,2.65333,4.00129,4.00129,0,0,1-1.64258,1.7207,5.63646,5.63646,0,0,1-5.05567,0Zm4.1836-1.35449a2.67619,2.67619,0,0,0,1.07617-1.16016,3.98234,3.98234,0,0,0,.376-1.79492v-3.95215a3.98521,3.98521,0,0,0-.376-1.79492,2.68146,2.68146,0,0,0-1.07617-1.16016,3.6004,3.6004,0,0,0-3.31153,0,2.67571,2.67571,0,0,0-1.07617,1.16016,3.98534,3.98534,0,0,0-.376,1.79492v3.95215a3.98247,3.98247,0,0,0,.376,1.79492,2.67047,2.67047,0,0,0,1.07617,1.16016,3.6004,3.6004,0,0,0,3.31153,0Z" transform="translate(-21.35594 -29.56121)"/><path d="M200.86523,258.20605h1.61426v13.48926h-1.61426Zm.97461,6.73536h4.31348a2.33081,2.33081,0,0,0,1.23828-.32422,2.182,2.182,0,0,0,.82617-.91406,3.0264,3.0264,0,0,0,.292-1.35938,3.08044,3.08044,0,0,0-.292-1.373,2.17513,2.17513,0,0,0-.82617-.918,2.33132,2.33132,0,0,0-1.23828-.32519h-4.31348v-1.52149h4.248a4.27641,4.27641,0,0,1,2.125.51465,3.583,3.583,0,0,1,1.42383,1.45215,4.505,4.505,0,0,1,.50586,2.1709,4.4584,4.4584,0,0,1-.50586,2.15723,3.58887,3.58887,0,0,1-1.42383,1.44726,4.27631,4.27631,0,0,1-2.125.51465h-4.248Z" transform="translate(-21.35594 -29.56121)"/><path d="M214.44238,271.23633a4.00129,4.00129,0,0,1-1.64258-1.7207,5.79314,5.79314,0,0,1-.57031-2.65333V263.04a5.7931,5.7931,0,0,1,.57031-2.65332,4.00356,4.00356,0,0,1,1.64258-1.72168,5.64464,5.64464,0,0,1,5.05567,0,4.00356,4.00356,0,0,1,1.64258,1.72168,5.7931,5.7931,0,0,1,.57031,2.65332v3.82226a5.79314,5.79314,0,0,1-.57031,2.65333,4.00129,4.00129,0,0,1-1.64258,1.7207,5.63646,5.63646,0,0,1-5.05567,0Zm4.1836-1.35449a2.67619,2.67619,0,0,0,1.07617-1.16016,3.98234,3.98234,0,0,0,.376-1.79492v-3.95215a3.98521,3.98521,0,0,0-.376-1.79492,2.68146,2.68146,0,0,0-1.07617-1.16016,3.6004,3.6004,0,0,0-3.31153,0,2.67571,2.67571,0,0,0-1.07617,1.16016,3.98521,3.98521,0,0,0-.376,1.79492v3.95215a3.98234,3.98234,0,0,0,.376,1.79492,2.67047,2.67047,0,0,0,1.07617,1.16016,3.6004,3.6004,0,0,0,3.31153,0Z" transform="translate(-21.35594 -29.56121)"/><path d="M224.58789,258.20605h1.61426v13.48926h-1.61426Zm.94629,11.96778h7.71875v1.52148h-7.71875Z" transform="translate(-21.35594 -29.56121)"/><path d="M237.042,271.23633a4.00129,4.00129,0,0,1-1.64258-1.7207,5.79314,5.79314,0,0,1-.57031-2.65333V263.04a5.7931,5.7931,0,0,1,.57031-2.65332A4.00356,4.00356,0,0,1,237.042,258.665a5.64464,5.64464,0,0,1,5.05567,0,4.00348,4.00348,0,0,1,1.64257,1.72168,5.793,5.793,0,0,1,.57032,2.65332v3.82226a5.793,5.793,0,0,1-.57032,2.65333,4.00121,4.00121,0,0,1-1.64257,1.7207,5.63646,5.63646,0,0,1-5.05567,0Zm4.1836-1.35449a2.67619,2.67619,0,0,0,1.07617-1.16016,3.98247,3.98247,0,0,0,.376-1.79492v-3.95215a3.98534,3.98534,0,0,0-.376-1.79492,2.68146,2.68146,0,0,0-1.07617-1.16016,3.6004,3.6004,0,0,0-3.31153,0,2.67571,2.67571,0,0,0-1.07617,1.16016,3.98521,3.98521,0,0,0-.376,1.79492v3.95215a3.98234,3.98234,0,0,0,.376,1.79492,2.67047,2.67047,0,0,0,1.07617,1.16016,3.6004,3.6004,0,0,0,3.31153,0Z" transform="translate(-21.35594 -29.56121)"/><path d="M256.22363,264.61719v2.1709a6.21,6.21,0,0,1-.55175,2.73144,3.83253,3.83253,0,0,1-1.61426,1.72559,5.19,5.19,0,0,1-2.55567.58984,5.54219,5.54219,0,0,1-2.584-.55664,3.75816,3.75816,0,0,1-1.63281-1.624,5.44345,5.44345,0,0,1-.56153-2.56934v-3.98047a6.17267,6.17267,0,0,1,.55176-2.72754,3.84056,3.84056,0,0,1,1.61426-1.7207,5.19782,5.19782,0,0,1,2.55566-.58887,4.98344,4.98344,0,0,1,2.19922.46778,4.087,4.087,0,0,1,1.59082,1.36914,5.66238,5.66238,0,0,1,.87695,2.1709h-1.74414a3.68467,3.68467,0,0,0-.62207-1.3545,2.75894,2.75894,0,0,0-1.002-.83105,2.93918,2.93918,0,0,0-1.29883-.28223,3.213,3.213,0,0,0-1.67383.41211,2.63936,2.63936,0,0,0-1.05273,1.19238,4.45743,4.45743,0,0,0-.3623,1.89258V267.085a3.79062,3.79062,0,0,0,.36621,1.74414,2.49709,2.49709,0,0,0,1.07226,1.08985,3.59254,3.59254,0,0,0,1.707.376,3.28049,3.28049,0,0,0,1.66016-.38965,2.51385,2.51385,0,0,0,1.03418-1.165,4.58343,4.58343,0,0,0,.35742-1.9248v-.67676h-3.00586v-1.52148Z" transform="translate(-21.35594 -29.56121)"/><path d="M260.85352,271.69531h-1.61524V258.20605h1.61524Z" transform="translate(-21.35594 -29.56121)"/><path d="M264.332,258.20605h1.61426v13.48926H264.332Zm.918,0h7.74707v1.52149H265.25Zm0,6.03028h6.72656v1.52148H265.25Zm0,5.9375h7.74707v1.52148H265.25Z" transform="translate(-21.35594 -29.56121)"/><path d="M277.89551,271.64941a7.00311,7.00311,0,0,1-1.62793-.55664,6.86262,6.86262,0,0,1-1.415-.92773l.99316-1.25293a5.52856,5.52856,0,0,0,1.78125,1.05762,6.15561,6.15561,0,0,0,2.11524.35254,4.29754,4.29754,0,0,0,2.48144-.61231,1.99188,1.99188,0,0,0,.876-1.73437v-.00977a1.7033,1.7033,0,0,0-.38867-1.17773,2.38666,2.38666,0,0,0-1.00684-.6543,10.637,10.637,0,0,0-1.59082-.39453.391.391,0,0,0-.06055-.01367.3454.3454,0,0,1-.06054-.01368l-.2041-.03711a15.87118,15.87118,0,0,1-2.24512-.543,3.1672,3.1672,0,0,1-1.45215-1.03028,3.21051,3.21051,0,0,1-.59863-2.07324v-.00879a3.91692,3.91692,0,0,1,.56152-2.13867,3.52432,3.52432,0,0,1,1.6377-1.34961,7.06665,7.06665,0,0,1,4.00293-.30664,7.1282,7.1282,0,0,1,1.38281.46875,8.28918,8.28918,0,0,1,1.34961.78418l-.92774,1.27051a7.01842,7.01842,0,0,0-1.624-.877,4.61935,4.61935,0,0,0-1.5957-.292,3.88447,3.88447,0,0,0-2.35547.62207,2.068,2.068,0,0,0-.83594,1.7627v.00879a1.54109,1.54109,0,0,0,.42285,1.15039,2.606,2.606,0,0,0,1.05274.62207,15.27944,15.27944,0,0,0,1.74414.417c.02441.00684.0498.01269.07422.01855.02441.00684.0498.0127.07421.01856.03711.00683.07227.01269.10645.01855.03418.00684.07031.0127.10742.01856a12.41662,12.41662,0,0,1,2.07813.59863,3.045,3.045,0,0,1,1.94726,3.0752v.01855a3.71351,3.71351,0,0,1-.584,2.11035A3.6357,3.6357,0,0,1,282.418,271.375a6.97529,6.97529,0,0,1-2.67578.46A8.89538,8.89538,0,0,1,277.89551,271.64941Z" transform="translate(-21.35594 -29.56121)"/><line class="cls-1" x1="148.551" y1="236.87438" x2="63.88958" y2="236.87438"/><line class="cls-1" x1="148.551" y1="201.25662" x2="75.85343" y2="201.25662"/><line class="cls-1" x1="148.551" y1="165.63887" x2="78.59037" y2="165.63887"/><line class="cls-1" x1="148.551" y1="129.70472" x2="75.85343" y2="129.70472"/><line class="cls-1" x1="148.551" y1="93.1378" x2="75.85343" y2="93.1378"/><line class="cls-1" x1="148.551" y1="57.42126" x2="78.59037" y2="57.42126"/><line class="cls-1" x1="148.551" y1="21.70472" x2="67.55906" y2="21.70472"/><line class="cls-1" x1="64.66911" y1="183.56299" x2="64.66911" y2="240.87758"/><line class="cls-1" x1="78.59037" y1="161.63497" x2="78.59037" y2="205.25627"/><line class="cls-1" x1="78.71635" y1="183.61811" x2="60.66911" y2="183.61811"/><line class="cls-1" x1="78.96832" y1="89.14029" x2="78.96832" y2="133.7037"/><line class="cls-1" x1="103.56675" y1="89.43307" x2="103.56675" y2="132.84252"/><line class="cls-1" x1="79.69273" y1="35.71654" x2="79.69273" y2="79.12598"/><line class="cls-1" x1="64.88958" x2="64.88958" y2="43.40945"/><line class="cls-2" x1="75.85343" y1="111.71278" x2="24.33169" y2="111.71278"/><line class="cls-2" x1="62.76378" y1="210.24624" x2="24.33169" y2="210.24624"/><line class="cls-2" x1="76.55906" y1="57.11042" x2="39.59055" y2="57.11042"/><line class="cls-2" x1="78.59037" y1="21.70472" x2="39.59055" y2="21.70472"/><line class="cls-2" x1="2" y1="167.70491" x2="2" y2="42.1301"/><line class="cls-2" x1="38.17323" y1="59.1113" x2="38.17323" y2="19.70097"/><line class="cls-2" x1="26.33858" y1="212.20482" x2="26.33858" y2="111.71278"/><line class="cls-2" x1="38.17323" y1="44.13207" x2="0.50975" y2="44.13207"/><line class="cls-2" x1="27.07087" y1="165.70064" x2="0.50089" y2="165.70064"/></svg>