<svg xmlns="http://www.w3.org/2000/svg" viewBox="0 0 226.04653 302.5"><g id="Ebene_2" data-name="Ebene 2"><rect x="74.21338" width="116.49984" height="4"/><rect x="12.5" y="108.5" width="75" height="8" transform="translate(-107.12012 144.5) rotate(-90)"/><rect x="53.33333" y="116" width="60" height="8" transform="translate(-81.28678 185.33333) rotate(-90)"/><rect x="86.66667" y="116" width="60" height="8" transform="translate(-47.95345 218.66667) rotate(-90)"/><rect x="120" y="116" width="60" height="8" transform="translate(-14.62012 252) rotate(-90)"/><rect x="153.33333" y="116" width="60" height="8" transform="translate(18.71322 285.33333) rotate(-90)"/><rect x="186.66667" y="116" width="60" height="8" transform="translate(52.04655 318.66667) rotate(-90)"/><rect x="212.5" y="108.5" width="75" height="8" transform="translate(92.87988 344.5) rotate(-90)"/><rect x="184.71323" y="57" width="41.3333" height="8"/><rect x="151.3799" y="72" width="41.3333" height="8"/><rect x="101.37988" y="72" width="41.33333" height="8"/><rect x="34.71322" y="72" width="41.33333" height="8"/><rect x="1.37988" y="57" width="58" height="8"/><rect x="88.5" y="82.5" width="23" height="8" transform="translate(-31.12012 168.5) rotate(-90)"/><rect x="191.66667" y="71" width="50" height="4" transform="translate(99.04655 271.66667) rotate(-90)"/><rect x="232.5" y="63.5" width="35" height="4" transform="translate(139.87988 297.5) rotate(-90)"/><rect x="172.04655" y="30" width="33.33333" height="4"/><rect x="216.33333" y="33" width="34" height="4" transform="translate(153.71322 250.33333) rotate(-90)"/><rect x="136.6667" y="66" width="60" height="4" transform="translate(54.04658 216.6667) rotate(-90)"/><rect x="52.5" y="58.5" width="45" height="4" transform="translate(-30.12012 117.5) rotate(-90)"/><rect x="28.37988" y="20" width="95.66667" height="4"/><rect x="108.8335" y="28" width="24" height="4" transform="translate(46.21338 132.8335) rotate(-90)"/><rect x="101.37993" y="97.07087" width="41.3333" height="8"/><path d="M49.041,163.13672h1.92089l4.4209,13.12305H53.582l-2.26074-7.32129c-.46-1.46-.90039-2.90039-1.29981-4.4209h-.08007c-.41993,1.52051-.83985,2.96094-1.30078,4.4209l-2.29981,7.32129h-1.7207ZM46.96094,170.919h6.02051v1.36035H46.96094Z" transform="translate(-44.62012 -18)"/><path d="M79.99316,163.13672h8.0625v1.4209H81.67383v4.4209H87.0752v1.41992H81.67383v5.86133H79.99316Z" transform="translate(-44.62012 -18)"/><path d="M79.31348,179.13672h4.10058c2.66114,0,4.60157.96094,4.60157,3.70117,0,2.62109-1.94043,3.88086-4.60157,3.88086H81.01367v5.541H79.31348Zm3.86035,6.22168c2.041,0,3.16113-.83985,3.16113-2.52051,0-1.7207-1.12012-2.34082-3.16113-2.34082H81.01367v4.86133Zm1.2207.02051,4.001,6.88086H86.49512l-3.4209-6.001Z" transform="translate(-44.62012 -18)"/><path d="M82.374,195.13672h1.9209l4.4209,13.12305H86.915l-2.26074-7.32129c-.46-1.46-.90039-2.90039-1.29981-4.4209h-.08008c-.41992,1.52051-.83984,2.96094-1.30078,4.4209l-2.2998,7.32129h-1.7207ZM80.294,202.919h6.0205v1.36035H80.294Z" transform="translate(-44.62012 -18)"/><path d="M78.77344,211.13672h2.04l1.84082,5.60156.63965,2.12012H83.374l.62012-2.12012,1.86035-5.60156h2.041v13.12305H86.29492v-6.56153c0-1.28027.2002-3.52051.28028-4.64062h-.06055l-.74024,2.56054-1.87988,5.16114H82.69434l-1.84082-5.16114-.75977-2.56054h-.04c.12012,1.12011.28027,3.36035.28027,4.64062v6.56153H78.77344Z" transform="translate(-44.62012 -18)"/><path d="M79.61328,227.13672h8.12207v1.4209H81.294v4.10058h5.4414v1.4209H81.294v4.76074h6.6416v1.41993H79.61328Z" transform="translate(-44.62012 -18)"/><path d="M77.5332,243.11719h1.87989l.96093,8.24219c.12012,1.0996.19922,1.74023.25977,3.04h.05957c.24023-1.2998.38086-1.94043.64062-3.0205l1.28028-4.88086h1.60058l1.24024,4.88086c.2793,1.08007.39941,1.7207.63965,3.0205h.08007c.08008-1.2998.12012-1.94043.24024-3.0205l.91992-8.26172h1.80078l-1.9209,13.14258H85.13477l-1.28028-5.28125c-.20019-.79981-.36035-1.55957-.48047-2.36036h-.05957c-.14062.80079-.25976,1.56055-.46,2.36036l-1.28027,5.28125h-2.041Z" transform="translate(-44.62012 -18)"/><path d="M78.293,265.63867c0-4.24121,2.08105-6.74121,5.041-6.74121,2.96094,0,5.041,2.5,5.041,6.74121,0,4.30078-2.08008,6.86133-5.041,6.86133C80.374,272.5,78.293,269.93945,78.293,265.63867Zm8.3418,0c0-3.30078-1.32032-5.26074-3.30079-5.26074s-3.30078,1.96-3.30078,5.26074c0,3.36035,1.32032,5.38086,3.30078,5.38086S86.63477,268.999,86.63477,265.63867Z" transform="translate(-44.62012 -18)"/><path d="M79.31348,275.13672h4.10058c2.66114,0,4.60157.96094,4.60157,3.70117,0,2.62012-1.94043,3.88086-4.60157,3.88086H81.01367v5.541H79.31348Zm3.86035,6.22168c2.041,0,3.16113-.83985,3.16113-2.52051,0-1.7207-1.12012-2.34082-3.16113-2.34082H81.01367v4.86133Zm1.2207.01953,4.001,6.88184H86.49512l-3.4209-6.001Z" transform="translate(-44.62012 -18)"/><path d="M79.27344,291.13672h1.70019v6.56152h.06055l5.501-6.56152h1.91992l-7.48145,8.94238v4.18067H79.27344Zm3.7207,5.80176,1.02051-1.32032,4.9209,8.64161H87.03516Z" transform="translate(-44.62012 -18)"/><path d="M113.32666,163.13672h8.0625v1.4209h-6.38184v4.4209h5.40137v1.41992h-5.40137v5.86133h-1.68066Z" transform="translate(-44.62012 -18)"/><path d="M111.62646,185.63867c0-4.24121,2.08106-6.74121,5.041-6.74121,2.96094,0,5.041,2.5,5.041,6.74121,0,4.30078-2.08008,6.86133-5.041,6.86133C113.70752,192.5,111.62646,189.93945,111.62646,185.63867Zm8.3418,0c0-3.30078-1.32031-5.26074-3.30078-5.26074s-3.30078,1.96-3.30078,5.26074c0,3.36035,1.32031,5.38086,3.30078,5.38086S119.96826,188.999,119.96826,185.63867Z" transform="translate(-44.62012 -18)"/><path d="M112.647,195.13672h4.10059c2.66113,0,4.60156.96094,4.60156,3.70117,0,2.62109-1.94043,3.88086-4.60156,3.88086h-2.40039v5.541H112.647Zm3.86035,6.22168c2.041,0,3.16114-.83985,3.16114-2.52051,0-1.7207-1.12012-2.34082-3.16114-2.34082h-2.16015v4.86133Zm1.22071.02051,4.001,6.88086h-1.90039l-3.4209-6.001Z" transform="translate(-44.62012 -18)"/><path d="M145.15137,163.22363h3.09472l1.27735,4.62012.4375,1.80273h.08008l.43261-1.80273,1.28321-4.62012h3.09375v13.03614h-2.49512v-4.03516c0-1.46777.25781-4.64648.39551-6.05566h-.05957l-1,3.499-1.01465,3.14062h-1.43067l-1.03222-3.14062-.9336-3.499h-.06933c.14941,1.40918.39551,4.58789.39551,6.05566v4.03516h-2.45508Z" transform="translate(-44.62012 -18)"/><path d="M144.96,185.63867c0-4.24121,2.08106-6.74121,5.041-6.74121,2.96093,0,5.041,2.5,5.041,6.74121,0,4.30078-2.08008,6.86133-5.041,6.86133C147.041,192.5,144.96,189.93945,144.96,185.63867Zm8.3418,0c0-3.30078-1.32031-5.26074-3.30078-5.26074s-3.30078,1.96-3.30078,5.26074c0,3.36035,1.32031,5.38086,3.30078,5.38086S153.30176,188.999,153.30176,185.63867Z" transform="translate(-44.62012 -18)"/><path d="M145.74023,195.13672h3.24122c3.94043,0,6.08105,2.34082,6.08105,6.50195,0,4.18067-2.14062,6.6211-6.001,6.6211h-3.32129Zm3.1211,11.74316c2.98047,0,4.46094-1.9209,4.46094-5.24121,0-3.30078-1.48047-5.12109-4.46094-5.12109H147.4209v10.3623Z" transform="translate(-44.62012 -18)"/><path d="M145.90039,222.83984h3.26074V212.55762h-3.26074v-1.4209h8.20215v1.4209H150.8418v10.28222h3.26074v1.41993h-8.20215Z" transform="translate(-44.62012 -18)"/><path d="M146.66016,227.13672h8.0625v1.4209h-6.38184v4.4209h5.40137v1.41992h-5.40137v5.86133h-1.68066Z" transform="translate(-44.62012 -18)"/><path d="M149.16113,251.5791l-4.40136-8.44238H146.541l1.96,3.88086c.5,1.02051.96,2.02051,1.5,3.06152h.08007c.52051-1.041,1.04-2.041,1.541-3.06152l1.90039-3.88086h1.71973l-4.40039,8.44238v4.68067h-1.68067Z" transform="translate(-44.62012 -18)"/><path d="M145.90039,270.83984h3.26074V260.55762h-3.26074v-1.4209h8.20215v1.4209H150.8418v10.28222h3.26074v1.41993h-8.20215Z" transform="translate(-44.62012 -18)"/><path d="M145.64063,275.13672h1.83984l4.20117,8.24219,1.26074,2.7207h.03907c-.05957-1.30078-.21973-2.78125-.21973-4.16113v-6.80176h1.60058v13.123h-1.84082l-4.20019-8.24219-1.26074-2.71973h-.04c.06054,1.33985.21972,2.74024.21972,4.10059v6.86133h-1.5996Z" transform="translate(-44.62012 -18)"/><path d="M145.06055,297.69824c0-4.24121,2.41992-6.80176,5.82129-6.80176a4.82581,4.82581,0,0,1,3.62011,1.60059l-.96,1.06055a3.41415,3.41415,0,0,0-2.66015-1.18067c-2.46094,0-4.06153,2.02051-4.06153,5.28125,0,3.30078,1.46094,5.36133,4.02149,5.36133a3.276,3.276,0,0,0,2.25976-.75976v-3.4209H150.501V297.458h4.16113v5.52148a5.518,5.518,0,0,1-3.9209,1.52051C147.44043,304.5,145.06055,301.97949,145.06055,297.69824Z" transform="translate(-44.62012 -18)"/><path d="M181.56641,163.22363h3.53711l4.06054,13.03614h-3.1289l-1.6836-6.59961c-.33008-1.30176-.72656-2.82813-1.041-4.20411h-.07813c-.32031,1.376-.68164,2.90235-1.01172,4.20411l-1.69531,6.59961h-3.01953Zm-1.373,7.6377h6.23828v2.29785h-6.23828Z" transform="translate(-44.62012 -18)"/><path d="M178.97461,179.13672h1.83984l4.20118,8.24219,1.25976,2.7207h.03906c-.05859-1.30078-.21875-2.78027-.21875-4.16113v-6.80176h1.59961v13.12305h-1.83984l-4.20117-8.24122-1.25977-2.7207h-.041c.06054,1.33985.2207,2.74024.2207,4.10059v6.86133h-1.59961Z" transform="translate(-44.62012 -18)"/><path d="M179.07422,195.13672h3.24023c3.94141,0,6.082,2.34082,6.082,6.50195,0,4.18067-2.14062,6.6211-6.00195,6.6211h-3.32031Zm3.12109,11.74316c2.98047,0,4.46094-1.9209,4.46094-5.24121,0-3.30078-1.48047-5.12109-4.46094-5.12109h-1.4414v10.3623Z" transform="translate(-44.62012 -18)"/><path d="M215.19238,165.69727h-3.9082v-2.47364h10.7666v2.47364h-3.9082v10.5625h-2.9502Z" transform="translate(-44.62012 -18)"/><path d="M212.94629,179.13672h8.12207v1.4209H214.627v4.10058h5.44141v1.4209H214.627v4.76074h6.6416v1.41993h-8.32226Z" transform="translate(-44.62012 -18)"/><path d="M212.00586,206.55957l1.001-1.16016a5.51715,5.51715,0,0,0,3.84082,1.62012c1.7998,0,2.83984-.86035,2.83984-2.06055,0-1.40039-1.01953-1.7998-2.33984-2.36035l-1.90039-.83984c-1.30079-.52051-2.82129-1.44043-2.82129-3.38086,0-2,1.80078-3.48047,4.30175-3.48047a5.72389,5.72389,0,0,1,4.04,1.62012l-.87988,1.08008a4.61287,4.61287,0,0,0-3.2207-1.21973c-1.52051,0-2.54.71973-2.54,1.90039,0,1.25977,1.21973,1.71973,2.33984,2.16016l1.84082.82031c1.62012.63965,2.90039,1.55957,2.90039,3.5,0,2.08105-1.76074,3.74121-4.64062,3.74121A6.67033,6.67033,0,0,1,212.00586,206.55957Z" transform="translate(-44.62012 -18)"/><path d="M215.82715,212.55762h-4.34082v-1.4209h10.3623v1.4209h-4.34082v11.70215h-1.68066Z" transform="translate(-44.62012 -18)"/><path d="M212.56641,238.83984h3.26074V228.55762h-3.26074v-1.4209h8.20214v1.4209h-3.26074v10.28222h3.26074v1.41993h-8.20214Z" transform="translate(-44.62012 -18)"/><path d="M212.30664,243.13672h1.83984l4.20118,8.24219,1.26074,2.7207h.03906c-.05957-1.30078-.21973-2.78027-.21973-4.16113v-6.80176h1.60059v13.12305H219.1875l-4.2002-8.24122-1.26074-2.7207h-.04c.06055,1.33985.21973,2.74024.21973,4.10059v6.86133h-1.59961Z" transform="translate(-44.62012 -18)"/><path d="M211.72656,265.69824c0-4.24023,2.41992-6.80078,5.82129-6.80078a4.82881,4.82881,0,0,1,3.62012,1.59961l-.96,1.06055a3.4136,3.4136,0,0,0-2.66016-1.17969c-2.46094,0-4.06152,2.01953-4.06152,5.28027,0,3.30078,1.46094,5.36133,4.02148,5.36133a3.276,3.276,0,0,0,2.25977-.75976v-3.4209H217.167V265.459h4.16114v5.52051a5.51386,5.51386,0,0,1-3.9209,1.52051C214.10645,272.5,211.72656,269.97949,211.72656,265.69824Z" transform="translate(-44.62012 -18)"/><path d="M248.52637,165.69727h-3.90821v-2.47364h10.76661v2.47364h-3.90821v10.5625h-2.95019Z" transform="translate(-44.62012 -18)"/><path d="M244.96,185.63867c0-4.24121,2.08106-6.74121,5.041-6.74121,2.96093,0,5.041,2.5,5.041,6.74121,0,4.30078-2.08008,6.86133-5.041,6.86133C247.041,192.5,244.96,189.93945,244.96,185.63867Zm8.3418,0c0-3.30078-1.32031-5.26074-3.30078-5.26074s-3.30078,1.96-3.30078,5.26074c0,3.36035,1.32031,5.38086,3.30078,5.38086S253.30176,188.999,253.30176,185.63867Z" transform="translate(-44.62012 -18)"/><path d="M246.04,195.13672H250.001c2.90136,0,4.86132.98047,4.86132,3.86133,0,2.78027-1.98046,4.06054-4.86132,4.06054H247.7207v5.20118H246.04Zm3.76074,6.56152c2.28125,0,3.38086-.83984,3.38086-2.70019,0-1.88086-1.12012-2.501-3.38086-2.501H247.7207v5.20117Z" transform="translate(-44.62012 -18)"/><path d="M244.96,217.63867c0-4.24121,2.08106-6.74121,5.041-6.74121,2.96093,0,5.041,2.5,5.041,6.74121,0,4.30078-2.08008,6.86133-5.041,6.86133C247.041,224.5,244.96,221.93945,244.96,217.63867Zm8.3418,0c0-3.30078-1.32031-5.26074-3.30078-5.26074s-3.30078,1.96-3.30078,5.26074c0,3.36035,1.32031,5.38086,3.30078,5.38086S253.30176,220.999,253.30176,217.63867Z" transform="translate(-44.62012 -18)"/><path d="M246.68066,227.13672h1.66016v11.70312h6.48145v1.41993h-8.14161Z" transform="translate(-44.62012 -18)"/><path d="M244.96,249.63867c0-4.24121,2.08106-6.74121,5.041-6.74121,2.96093,0,5.041,2.5,5.041,6.74121,0,4.30078-2.08008,6.86133-5.041,6.86133C247.041,256.5,244.96,253.93945,244.96,249.63867Zm8.3418,0c0-3.30078-1.32031-5.26074-3.30078-5.26074s-3.30078,1.96-3.30078,5.26074c0,3.36035,1.32031,5.38086,3.30078,5.38086S253.30176,252.999,253.30176,249.63867Z" transform="translate(-44.62012 -18)"/><path d="M245.06055,265.69824c0-4.24023,2.41992-6.80078,5.82129-6.80078a4.82878,4.82878,0,0,1,3.62011,1.59961l-.96,1.06055a3.41358,3.41358,0,0,0-2.66015-1.17969c-2.46094,0-4.06153,2.01953-4.06153,5.28027,0,3.30078,1.46094,5.36133,4.02149,5.36133a3.276,3.276,0,0,0,2.25976-.75976v-3.4209H250.501V265.459h4.16113v5.52051a5.51382,5.51382,0,0,1-3.9209,1.52051C247.44043,272.5,245.06055,269.97949,245.06055,265.69824Z" transform="translate(-44.62012 -18)"/><path d="M245.90039,286.83984h3.26074V276.55762h-3.26074v-1.4209h8.20215v1.4209H250.8418v10.28222h3.26074v1.41993h-8.20215Z" transform="translate(-44.62012 -18)"/><path d="M246.28027,291.13672h8.12207v1.4209h-6.4414v4.10058h5.4414v1.41993h-5.4414v4.76171h6.6416v1.41993h-8.32227Z" transform="translate(-44.62012 -18)"/><path d="M245.33984,318.55957l1.001-1.16016a5.52134,5.52134,0,0,0,3.84082,1.62012c1.79981,0,2.83984-.86035,2.83984-2.06055,0-1.40039-1.01953-1.80078-2.33984-2.36035l-1.90039-.83984c-1.30078-.52051-2.82129-1.44043-2.82129-3.38086,0-2.001,1.80078-3.48145,4.30176-3.48145a5.7204,5.7204,0,0,1,4.04,1.6211l-.87988,1.08008a4.60919,4.60919,0,0,0-3.22071-1.22071c-1.52051,0-2.54.72071-2.54,1.90039,0,1.26075,1.21973,1.72071,2.33985,2.16114l1.84082.81933c1.62011.64063,2.90039,1.56055,2.90039,3.501,0,2.08105-1.76074,3.74121-4.64063,3.74121A6.67435,6.67435,0,0,1,245.33984,318.55957Z" transform="translate(-44.62012 -18)"/></g></svg>