<svg xmlns="http://www.w3.org/2000/svg" viewBox="0 0 263.90781 228.16663"><g id="Ebene_2" data-name="Ebene 2"><rect x="-38.91652" y="120.91661" width="116.49984" height="4" transform="translate(-120.91661 112.91663) rotate(-90)"/><rect x="74.3334" y="246.00002" width="75" height="8" transform="translate(206.3334 470.66668) rotate(-180)"/><rect x="89.3334" y="212.66669" width="60" height="8" transform="translate(221.3334 404.00001) rotate(-180)"/><rect x="89.3334" y="179.33336" width="60" height="8" transform="translate(221.3334 337.33334) rotate(-180)"/><rect x="89.3334" y="146.00003" width="60" height="8" transform="translate(221.3334 270.66668) rotate(-180)"/><rect x="89.3334" y="112.66669" width="60" height="8" transform="translate(221.3334 204.00001) rotate(-180)"/><rect x="89.3334" y="79.33336" width="60" height="8" transform="translate(221.3334 137.33334) rotate(-180)"/><rect x="74.3334" y="46.00002" width="75" height="8" transform="translate(206.3334 70.66668) rotate(-180)"/><rect x="57.66675" y="46.00002" width="41.3333" height="8" transform="translate(10.99998 99.00005) rotate(-90)"/><rect x="72.66675" y="79.33336" width="41.3333" height="8" transform="translate(-7.33336 147.33338) rotate(-90)"/><rect x="72.66673" y="129.33336" width="41.33333" height="8" transform="translate(-57.33336 197.33338) rotate(-90)"/><rect x="72.66673" y="196.00002" width="41.33333" height="8" transform="translate(-124.00003 264.00005) rotate(-90)"/><rect x="49.3334" y="221.00002" width="58" height="8" transform="translate(-164.00003 274.00005) rotate(-90)"/><rect x="74.3334" y="196.00002" width="23" height="8" transform="translate(154.3334 370.66668) rotate(-180)"/><rect x="47.3334" y="81.33336" width="50" height="4" transform="translate(127.3334 137.33334) rotate(-180)"/><rect x="47.3334" y="48.00002" width="35" height="4" transform="translate(112.3334 70.66668) rotate(-180)"/><rect x="32.66673" y="64.66669" width="33.33333" height="4" transform="translate(-34.66669 86.66672) rotate(-90)"/><rect x="17.3334" y="64.66669" width="34" height="4" transform="translate(51.3334 104.00001) rotate(-180)"/><rect x="37.3334" y="131.33333" width="60" height="4" transform="translate(117.3334 237.33328) rotate(-180)"/><rect x="37.3334" y="223.00002" width="45" height="4" transform="translate(102.3334 420.66667) rotate(-180)"/><rect x="-8.49993" y="177.16669" width="95.66667" height="4" transform="translate(-157.16669 189.16672) rotate(-90)"/><rect x="17.3334" y="177.16653" width="24" height="4" transform="translate(41.3334 328.99968) rotate(-180)"/><rect x="97.73762" y="129.33333" width="41.3333" height="8" transform="translate(-32.26246 222.40422) rotate(-90)"/><path d="M167.542,44.13672h1.9209l4.4209,13.12305H172.083L169.82227,49.938c-.46-1.46-.90039-2.90039-1.29981-4.4209h-.08008c-.41992,1.52051-.83984,2.96094-1.30078,4.4209l-2.2998,7.32178h-1.72071Zm-2.08008,7.78174h6.02051v1.36035h-6.02051Z" transform="translate(-17.3334 -29.33337)"/><path d="M165.16113,77.46973h8.0625v1.42041H166.8418V83.311h5.40136v1.42041H166.8418v5.86132h-1.68067Z" transform="translate(-17.3334 -29.33337)"/><path d="M176.48145,77.46973H180.582c2.66113,0,4.60156.96045,4.60156,3.70117,0,2.6206-1.94043,3.88086-4.60156,3.88086h-2.40039v5.541h-1.70019Zm3.86035,6.22168c2.041,0,3.16113-.84034,3.16113-2.52051,0-1.7207-1.12012-2.34082-3.16113-2.34082h-2.16016v4.86133Zm1.2207.02,4.001,6.88134h-1.90039l-3.4209-6.00146Z" transform="translate(-17.3334 -29.33337)"/><path d="M191.542,77.46973h1.9209l4.4209,13.123H196.083L193.82227,83.271c-.46-1.46-.90039-2.90039-1.29981-4.4209h-.08008c-.41992,1.52051-.83984,2.96094-1.30078,4.4209l-2.2998,7.32177h-1.72071Zm-2.08008,7.78173h6.02051v1.36036h-6.02051Z" transform="translate(-17.3334 -29.33337)"/><path d="M199.94043,77.46973h2.04l1.84082,5.60156.63965,2.12012h.08008l.62011-2.12012,1.86035-5.60156h2.041v13.123h-1.60059V84.03125c0-1.28027.2002-3.52051.28028-4.64062h-.06055l-.74023,2.56054-1.87989,5.16065h-1.20019l-1.84082-5.16065-.75977-2.56054h-.04c.12012,1.12011.28028,3.36035.28028,4.64062v6.56152h-1.56055Z" transform="translate(-17.3334 -29.33337)"/><path d="M212.78027,77.46973h8.12207v1.42041h-6.4414v4.10107h5.4414v1.42041h-5.4414v4.76074h6.6416v1.42041h-8.32227Z" transform="translate(-17.3334 -29.33337)"/><path d="M222.7002,77.4502h1.87988l.96094,8.24169c.12011,1.1001.19921,1.74024.25976,3.04053h.05957c.24024-1.30029.38086-1.94043.64063-3.02051l1.28027-4.88134h1.60059l1.24023,4.88134c.2793,1.08008.39941,1.72022.63965,3.02051h.08008c.08008-1.30029.12011-1.94043.24023-3.02051l.91992-8.26171h1.80078l-1.92089,13.14257h-2.08008l-1.28028-5.28125c-.20019-.7998-.36035-1.56006-.48046-2.36035h-.05957c-.14063.80029-.25977,1.56055-.46,2.36035l-1.28027,5.28125h-2.041Z" transform="translate(-17.3334 -29.33337)"/><path d="M235.46,83.97119c0-4.24072,2.08106-6.74121,5.041-6.74121,2.96093,0,5.041,2.50049,5.041,6.74121,0,4.30127-2.08008,6.86182-5.041,6.86182C237.541,90.833,235.46,88.27246,235.46,83.97119Zm8.3418,0c0-3.30029-1.32031-5.26074-3.30078-5.26074s-3.30078,1.96045-3.30078,5.26074c0,3.36084,1.32031,5.38135,3.30078,5.38135S243.80176,87.332,243.80176,83.97119Z" transform="translate(-17.3334 -29.33337)"/><path d="M248.48047,77.46973h4.10058c2.66114,0,4.60157.96045,4.60157,3.70117,0,2.6206-1.94043,3.88086-4.60157,3.88086h-2.40039v5.541h-1.70019Zm3.86035,6.22168c2.041,0,3.16113-.84034,3.16113-2.52051,0-1.7207-1.12011-2.34082-3.16113-2.34082h-2.16016v4.86133Zm1.2207.02,4.001,6.88134h-1.90039l-3.4209-6.00146Z" transform="translate(-17.3334 -29.33337)"/><path d="M260.43945,77.46973h1.7002v6.56152h.06055l5.501-6.56152h1.91992l-7.48144,8.94238v4.18066h-1.7002Zm3.72071,5.80127,1.0205-1.31983,4.9209,8.6416h-1.90039Z" transform="translate(-17.3334 -29.33337)"/><path d="M165.16113,110.80322h8.0625v1.42041H166.8418v4.4209h5.40136v1.42041H166.8418v5.86133h-1.68067Z" transform="translate(-17.3334 -29.33337)"/><path d="M175.46094,117.30469c0-4.24073,2.08105-6.74121,5.041-6.74121,2.96094,0,5.041,2.50048,5.041,6.74121,0,4.30127-2.08008,6.86181-5.041,6.86181C177.542,124.1665,175.46094,121.606,175.46094,117.30469Zm8.34179,0c0-3.3003-1.32031-5.26074-3.30078-5.26074s-3.30078,1.96044-3.30078,5.26074c0,3.36084,1.32031,5.38135,3.30078,5.38135S183.80273,120.66553,183.80273,117.30469Z" transform="translate(-17.3334 -29.33337)"/><path d="M188.48145,110.80322H192.582c2.66113,0,4.60156.96045,4.60156,3.70117,0,2.62061-1.94043,3.88086-4.60156,3.88086h-2.40039v5.541h-1.70019Zm3.86035,6.22168c2.041,0,3.16113-.84033,3.16113-2.52051,0-1.7207-1.12012-2.34082-3.16113-2.34082h-2.16016v4.86133Zm1.2207.02,4.001,6.88135h-1.90039l-3.4209-6.00147Z" transform="translate(-17.3334 -29.33337)"/><path d="M163.65234,144.22314h3.09473l1.27734,4.61963.4375,1.80274h.08008l.43262-1.80274,1.2832-4.61963h3.09375v13.03663h-2.49511v-4.03614c0-1.46777.25781-4.64648.3955-6.05517h-.05957l-1,3.49853-1.01465,3.14063h-1.43066l-1.03223-3.14063-.93359-3.49853h-.06934c.14942,1.40869.39551,4.5874.39551,6.05517v4.03614h-2.45508Z" transform="translate(-17.3334 -29.33337)"/><path d="M175.46094,150.6377c0-4.24073,2.08105-6.74122,5.041-6.74122,2.96094,0,5.041,2.50049,5.041,6.74122,0,4.30175-2.08008,6.8623-5.041,6.8623C177.542,157.5,175.46094,154.93945,175.46094,150.6377Zm8.34179,0c0-3.3003-1.32031-5.26075-3.30078-5.26075s-3.30078,1.96045-3.30078,5.26075c0,3.36132,1.32031,5.38183,3.30078,5.38183S183.80273,153.999,183.80273,150.6377Z" transform="translate(-17.3334 -29.33337)"/><path d="M188.24121,144.13623h3.24121c3.94043,0,6.08106,2.34082,6.08106,6.50147,0,4.18164-2.14063,6.62207-6.001,6.62207h-3.32129Zm3.12109,11.74268c2.98047,0,4.46094-1.91993,4.46094-5.24121,0-3.3003-1.48047-5.1211-4.46094-5.1211h-1.44042v10.36231Z" transform="translate(-17.3334 -29.33337)"/><path d="M200.40039,155.83887h3.26074V145.55664h-3.26074v-1.42041h8.20215v1.42041H205.3418v10.28223h3.26074v1.4209h-8.20215Z" transform="translate(-17.3334 -29.33337)"/><path d="M213.16016,144.13623h8.0625v1.42041h-6.38184v4.4209h5.40137v1.4209h-5.40137v5.86133h-1.68066Z" transform="translate(-17.3334 -29.33337)"/><path d="M227.66113,152.57813l-4.40136-8.4419H225.041l1.96,3.88086c.5,1.02051.96,2.021,1.5,3.061h.08007c.52051-1.04,1.04-2.04053,1.541-3.061l1.90039-3.88086h1.71973l-4.40039,8.4419v4.68164h-1.68067Z" transform="translate(-17.3334 -29.33337)"/><path d="M236.40039,155.83887h3.26074V145.55664h-3.26074v-1.42041h8.20215v1.42041H241.3418v10.28223h3.26074v1.4209h-8.20215Z" transform="translate(-17.3334 -29.33337)"/><path d="M248.14063,144.13623h1.83984l4.20117,8.24268,1.26074,2.71972h.03907c-.05957-1.2998-.21973-2.78027-.21973-4.16015v-6.80225h1.60058v13.12354h-1.84082l-4.20019-8.24219-1.26074-2.7207h-.04c.06054,1.34033.21972,2.74072.21972,4.10156v6.86133h-1.5996Z" transform="translate(-17.3334 -29.33337)"/><path d="M259.55957,150.69824c0-4.24121,2.41992-6.80176,5.82129-6.80176a4.82735,4.82735,0,0,1,3.62012,1.6001l-.96,1.06055a3.41389,3.41389,0,0,0-2.66016-1.18018c-2.46094,0-4.06152,2.02-4.06152,5.28125,0,3.30078,1.46093,5.36133,4.02148,5.36133a3.27163,3.27163,0,0,0,2.25977-.76074v-3.4209H265V150.458h4.16113v5.52148a5.518,5.518,0,0,1-3.9209,1.52051C261.93945,157.5,259.55957,154.97949,259.55957,150.69824Z" transform="translate(-17.3334 -29.33337)"/><path d="M166.7334,177.55762h3.53711l4.06054,13.03613h-3.1289l-1.68262-6.60059c-.33008-1.30078-.72754-2.82812-1.041-4.2041h-.07911c-.31933,1.376-.68164,2.90332-1.01171,4.2041l-1.69434,6.60059h-3.01953Zm-1.373,7.63672h6.23828v2.29882h-6.23828Z" transform="translate(-17.3334 -29.33337)"/><path d="M176.1416,177.4707h1.83985l4.20117,8.24219,1.26074,2.71973h.03906c-.05957-1.29981-.21972-2.78028-.21972-4.16016V177.4707h1.60058v13.12305h-1.84082l-4.20019-8.24219-1.26075-2.7207h-.04c.06055,1.34082.21973,2.74121.21973,4.10156v6.86133H176.1416Z" transform="translate(-17.3334 -29.33337)"/><path d="M188.24121,177.4707h3.24121c3.94043,0,6.08106,2.34082,6.08106,6.501,0,4.18164-2.14063,6.62207-6.001,6.62207h-3.32129Zm3.12109,11.74219c2.98047,0,4.46094-1.91992,4.46094-5.24121,0-3.2998-1.48047-5.12109-4.46094-5.12109h-1.44042v10.3623Z" transform="translate(-17.3334 -29.33337)"/><path d="M167.02832,213.36426h-3.9082v-2.47363h10.7666v2.47363h-3.9082v10.5625h-2.9502Z" transform="translate(-17.3334 -29.33337)"/><path d="M176.78223,210.80371h8.12207v1.41992h-6.44141v4.10157h5.44141v1.41992h-5.44141v4.76074h6.6416v1.4209h-8.32226Z" transform="translate(-17.3334 -29.33337)"/><path d="M187.8418,222.22656l1.001-1.16113a5.51807,5.51807,0,0,0,3.84082,1.62109c1.79981,0,2.83985-.86035,2.83985-2.06054,0-1.40039-1.01953-1.80078-2.33985-2.36035l-1.90039-.84083c-1.30078-.51953-2.82129-1.44042-2.82129-3.38085,0-2,1.80079-3.48047,4.30176-3.48047a5.72389,5.72389,0,0,1,4.04,1.62011l-.87988,1.08106a4.60918,4.60918,0,0,0-3.2207-1.2207c-1.52051,0-2.54.71972-2.54,1.90039,0,1.26074,1.21972,1.7207,2.33984,2.16015l1.84082.82031c1.62012.64063,2.90039,1.56055,2.90039,3.501,0,2.08008-1.76074,3.74121-4.64062,3.74121A6.67434,6.67434,0,0,1,187.8418,222.22656Z" transform="translate(-17.3334 -29.33337)"/><path d="M203.66211,212.22363h-4.34082v-1.41992h10.3623v1.41992h-4.34082v11.70313h-1.68066Z" transform="translate(-17.3334 -29.33337)"/><path d="M212.40137,222.50586h3.26074V212.22363h-3.26074v-1.41992h8.20215v1.41992h-3.26075v10.28223h3.26075v1.4209h-8.20215Z" transform="translate(-17.3334 -29.33337)"/><path d="M224.1416,210.80371h1.83985l4.20117,8.24219,1.26074,2.71973h.03906c-.05957-1.29981-.21972-2.78028-.21972-4.16016v-6.80176h1.60058v13.12305h-1.84082l-4.20019-8.24219-1.26075-2.7207h-.04c.06055,1.34082.21973,2.74121.21973,4.10156v6.86133H224.1416Z" transform="translate(-17.3334 -29.33337)"/><path d="M235.56152,217.36523c0-4.24121,2.41993-6.80175,5.82129-6.80175a4.82581,4.82581,0,0,1,3.62012,1.60058l-.96,1.06055a3.41417,3.41417,0,0,0-2.66016-1.18066c-2.46093,0-4.06152,2.0205-4.06152,5.28125,0,3.30078,1.46094,5.36132,4.02148,5.36132a3.27159,3.27159,0,0,0,2.25977-.76074v-3.4209H241.002V217.125h4.16114v5.52148a5.518,5.518,0,0,1-3.9209,1.52051C237.94141,224.167,235.56152,221.64648,235.56152,217.36523Z" transform="translate(-17.3334 -29.33337)"/><path d="M167.02734,246.69727h-3.9082v-2.47364h10.7666v2.47364h-3.9082v10.5625h-2.9502Z" transform="translate(-17.3334 -29.33337)"/><path d="M175.46094,250.63867c0-4.24121,2.08105-6.74121,5.041-6.74121,2.96094,0,5.041,2.5,5.041,6.74121,0,4.30078-2.08008,6.86133-5.041,6.86133C177.542,257.5,175.46094,254.93945,175.46094,250.63867Zm8.34179,0c0-3.30078-1.32031-5.26074-3.30078-5.26074s-3.30078,1.96-3.30078,5.26074c0,3.36035,1.32031,5.38086,3.30078,5.38086S183.80273,253.999,183.80273,250.63867Z" transform="translate(-17.3334 -29.33337)"/><path d="M188.541,244.13672H192.502c2.90137,0,4.86133.98047,4.86133,3.86133,0,2.78027-1.98047,4.06054-4.86133,4.06054h-2.28027v5.20118H188.541Zm3.76074,6.56152c2.28125,0,3.38086-.83984,3.38086-2.70019,0-1.88086-1.12012-2.501-3.38086-2.501h-2.08008v5.20117Z" transform="translate(-17.3334 -29.33337)"/><path d="M199.46,250.63867c0-4.24121,2.08106-6.74121,5.041-6.74121,2.96093,0,5.041,2.5,5.041,6.74121,0,4.30078-2.08008,6.86133-5.041,6.86133C201.541,257.5,199.46,254.93945,199.46,250.63867Zm8.3418,0c0-3.30078-1.32031-5.26074-3.30078-5.26074s-3.30078,1.96-3.30078,5.26074c0,3.36035,1.32031,5.38086,3.30078,5.38086S207.80176,253.999,207.80176,250.63867Z" transform="translate(-17.3334 -29.33337)"/><path d="M213.18066,244.13672h1.66016v11.70312h6.48145v1.41993h-8.14161Z" transform="translate(-17.3334 -29.33337)"/><path d="M223.46,250.63867c0-4.24121,2.08106-6.74121,5.041-6.74121,2.96093,0,5.041,2.5,5.041,6.74121,0,4.30078-2.08008,6.86133-5.041,6.86133C225.541,257.5,223.46,254.93945,223.46,250.63867Zm8.3418,0c0-3.30078-1.32031-5.26074-3.30078-5.26074s-3.30078,1.96-3.30078,5.26074c0,3.36035,1.32031,5.38086,3.30078,5.38086S231.80176,253.999,231.80176,250.63867Z" transform="translate(-17.3334 -29.33337)"/><path d="M235.56055,250.69824c0-4.24023,2.41992-6.80078,5.82129-6.80078a4.82878,4.82878,0,0,1,3.62011,1.59961l-.96,1.06055a3.41358,3.41358,0,0,0-2.66015-1.17969c-2.46094,0-4.06153,2.01953-4.06153,5.28027,0,3.30078,1.46094,5.36133,4.02149,5.36133a3.276,3.276,0,0,0,2.25976-.75976v-3.4209H241.001V250.459h4.16113v5.52051a5.51382,5.51382,0,0,1-3.9209,1.52051C237.94043,257.5,235.56055,254.97949,235.56055,250.69824Z" transform="translate(-17.3334 -29.33337)"/><path d="M248.40039,255.83984h3.26074V245.55762h-3.26074v-1.4209h8.20215v1.4209H253.3418v10.28222h3.26074v1.41993h-8.20215Z" transform="translate(-17.3334 -29.33337)"/><path d="M260.7793,244.13672h8.12207v1.4209H262.46v4.10058h5.44141v1.4209H262.46v4.76074h6.6416v1.41993H260.7793Z" transform="translate(-17.3334 -29.33337)"/><path d="M271.83887,255.55957l1.001-1.16016a5.51717,5.51717,0,0,0,3.84082,1.62012c1.79981,0,2.83985-.86035,2.83985-2.06055,0-1.40039-1.01953-1.7998-2.33985-2.36035l-1.90039-.83984c-1.30078-.52051-2.82129-1.44043-2.82129-3.38086,0-2,1.80079-3.48047,4.30176-3.48047a5.72389,5.72389,0,0,1,4.04,1.62012l-.87988,1.08008a4.61287,4.61287,0,0,0-3.2207-1.21973c-1.52051,0-2.54.71973-2.54,1.90039,0,1.25977,1.21972,1.71973,2.33984,2.16016l1.84082.82031c1.62012.63965,2.90039,1.55957,2.90039,3.5,0,2.08105-1.76074,3.74121-4.64062,3.74121A6.67033,6.67033,0,0,1,271.83887,255.55957Z" transform="translate(-17.3334 -29.33337)"/></g></svg>